<svg width="31" height="30" viewBox="0 0 31 30" fill="none" xmlns="http://www.w3.org/2000/svg">
<path d="M30.452 22.1953L28.8876 12.8203C28.7353 11.918 27.956 11.2559 27.0361 11.2559H12.6929V7.50586H18.3177C18.8333 7.50586 19.2552 7.08398 19.2552 6.56836V0.9375C19.2552 0.421875 18.8333 0 18.3177 0H3.31826C2.80265 0 2.38079 0.421875 2.38079 0.9375V6.5625C2.38079 7.07812 2.80265 7.5 3.31826 7.5H8.94305V11.25H3.96862C3.05459 11.25 2.26947 11.9121 2.11713 12.8145L0.552732 22.1895C0.517577 22.3945 0.5 22.5996 0.5 22.8047V28.125C0.5 29.1621 1.33786 30 2.37493 30H28.624C29.661 30 30.4989 29.1621 30.4989 28.125V22.8105C30.5048 22.6055 30.4872 22.4004 30.452 22.1953ZM16.9115 14.5312C16.9115 14.0156 17.3334 13.5938 17.849 13.5938H18.7864C19.302 13.5938 19.7239 14.0156 19.7239 14.5312V15.4688C19.7239 15.9844 19.302 16.4062 18.7864 16.4062H17.849C17.3334 16.4062 16.9115 15.9844 16.9115 15.4688V14.5312ZM15.0366 18.2812H15.974C16.4896 18.2812 16.9115 18.7031 16.9115 19.2188V20.1562C16.9115 20.6719 16.4896 21.0938 15.974 21.0938H15.0366C14.521 21.0938 14.0991 20.6719 14.0991 20.1562V19.2188C14.0991 18.7031 14.521 18.2812 15.0366 18.2812ZM13.1616 13.5938C13.6772 13.5938 14.0991 14.0156 14.0991 14.5312V15.4688C14.0991 15.9844 13.6772 16.4062 13.1616 16.4062H12.2242C11.7086 16.4062 11.2867 15.9844 11.2867 15.4688V14.5312C11.2867 14.0156 11.7086 13.5938 12.2242 13.5938H13.1616ZM5.19319 4.6875V2.8125H16.4428V4.6875H5.19319ZM7.53685 16.4062H6.59938C6.08378 16.4062 5.66192 15.9844 5.66192 15.4688V14.5312C5.66192 14.0156 6.08378 13.5938 6.59938 13.5938H7.53685C8.05246 13.5938 8.47432 14.0156 8.47432 14.5312V15.4688C8.47432 15.9844 8.05246 16.4062 7.53685 16.4062ZM8.47432 20.1562V19.2188C8.47432 18.7031 8.89617 18.2812 9.41178 18.2812H10.3492C10.8649 18.2812 11.2867 18.7031 11.2867 19.2188V20.1562C11.2867 20.6719 10.8649 21.0938 10.3492 21.0938H9.41178C8.89617 21.0938 8.47432 20.6719 8.47432 20.1562ZM21.1301 26.7188C21.1301 26.9766 20.9192 27.1875 20.6614 27.1875H10.3492C10.0914 27.1875 9.88051 26.9766 9.88051 26.7188V25.7812C9.88051 25.5234 10.0914 25.3125 10.3492 25.3125H20.6614C20.9192 25.3125 21.1301 25.5234 21.1301 25.7812V26.7188ZM22.5363 20.1562C22.5363 20.6719 22.1144 21.0938 21.5988 21.0938H20.6614C20.1458 21.0938 19.7239 20.6719 19.7239 20.1562V19.2188C19.7239 18.7031 20.1458 18.2812 20.6614 18.2812H21.5988C22.1144 18.2812 22.5363 18.7031 22.5363 19.2188V20.1562ZM25.3487 15.4688C25.3487 15.9844 24.9268 16.4062 24.4112 16.4062H23.4738C22.9582 16.4062 22.5363 15.9844 22.5363 15.4688V14.5312C22.5363 14.0156 22.9582 13.5938 23.4738 13.5938H24.4112C24.9268 13.5938 25.3487 14.0156 25.3487 14.5312V15.4688Z" fill="#F9E5DA"/>
</svg>
