<svg width="31" height="31" viewBox="0 0 31 31" fill="none" xmlns="http://www.w3.org/2000/svg">
<path d="M30.452 22.6953L28.8876 13.3203C28.7353 12.418 27.956 11.7559 27.0361 11.7559H12.6929V8.00586H18.3177C18.8333 8.00586 19.2552 7.58398 19.2552 7.06836V1.4375C19.2552 0.921875 18.8333 0.5 18.3177 0.5H3.31826C2.80265 0.5 2.38079 0.921875 2.38079 1.4375V7.0625C2.38079 7.57812 2.80265 8 3.31826 8H8.94305V11.75H3.96862C3.05459 11.75 2.26947 12.4121 2.11713 13.3145L0.552732 22.6895C0.517577 22.8945 0.5 23.0996 0.5 23.3047V28.625C0.5 29.6621 1.33786 30.5 2.37493 30.5H28.624C29.661 30.5 30.4989 29.6621 30.4989 28.625V23.3105C30.5048 23.1055 30.4872 22.9004 30.452 22.6953ZM16.9115 15.0312C16.9115 14.5156 17.3334 14.0938 17.849 14.0938H18.7864C19.302 14.0938 19.7239 14.5156 19.7239 15.0312V15.9688C19.7239 16.4844 19.302 16.9062 18.7864 16.9062H17.849C17.3334 16.9062 16.9115 16.4844 16.9115 15.9688V15.0312ZM15.0366 18.7812H15.974C16.4896 18.7812 16.9115 19.2031 16.9115 19.7188V20.6562C16.9115 21.1719 16.4896 21.5938 15.974 21.5938H15.0366C14.521 21.5938 14.0991 21.1719 14.0991 20.6562V19.7188C14.0991 19.2031 14.521 18.7812 15.0366 18.7812ZM13.1616 14.0938C13.6772 14.0938 14.0991 14.5156 14.0991 15.0312V15.9688C14.0991 16.4844 13.6772 16.9062 13.1616 16.9062H12.2242C11.7086 16.9062 11.2867 16.4844 11.2867 15.9688V15.0312C11.2867 14.5156 11.7086 14.0938 12.2242 14.0938H13.1616ZM5.19319 5.1875V3.3125H16.4428V5.1875H5.19319ZM7.53685 16.9062H6.59938C6.08378 16.9062 5.66192 16.4844 5.66192 15.9688V15.0312C5.66192 14.5156 6.08378 14.0938 6.59938 14.0938H7.53685C8.05246 14.0938 8.47432 14.5156 8.47432 15.0312V15.9688C8.47432 16.4844 8.05246 16.9062 7.53685 16.9062ZM8.47432 20.6562V19.7188C8.47432 19.2031 8.89617 18.7812 9.41178 18.7812H10.3492C10.8649 18.7812 11.2867 19.2031 11.2867 19.7188V20.6562C11.2867 21.1719 10.8649 21.5938 10.3492 21.5938H9.41178C8.89617 21.5938 8.47432 21.1719 8.47432 20.6562ZM21.1301 27.2188C21.1301 27.4766 20.9192 27.6875 20.6614 27.6875H10.3492C10.0914 27.6875 9.88051 27.4766 9.88051 27.2188V26.2812C9.88051 26.0234 10.0914 25.8125 10.3492 25.8125H20.6614C20.9192 25.8125 21.1301 26.0234 21.1301 26.2812V27.2188ZM22.5363 20.6562C22.5363 21.1719 22.1144 21.5938 21.5988 21.5938H20.6614C20.1458 21.5938 19.7239 21.1719 19.7239 20.6562V19.7188C19.7239 19.2031 20.1458 18.7812 20.6614 18.7812H21.5988C22.1144 18.7812 22.5363 19.2031 22.5363 19.7188V20.6562ZM25.3487 15.9688C25.3487 16.4844 24.9268 16.9062 24.4112 16.9062H23.4738C22.9582 16.9062 22.5363 16.4844 22.5363 15.9688V15.0312C22.5363 14.5156 22.9582 14.0938 23.4738 14.0938H24.4112C24.9268 14.0938 25.3487 14.5156 25.3487 15.0312V15.9688Z" fill="#F9E5DA"/>
</svg>
