<svg width="31" height="30" viewBox="0 0 31 30" fill="none" xmlns="http://www.w3.org/2000/svg">
<path d="M13.626 7.5C14.4194 7.49988 15.1831 7.80154 15.7623 8.3438C16.3414 8.88606 16.6927 9.62831 16.7447 10.42L16.751 10.625V16.3812L22.3197 17.1388C23.4962 17.2734 24.5866 17.8212 25.397 18.6847C26.2073 19.5481 26.6849 20.6711 26.7447 21.8538L26.751 22.1062V22.5C26.7514 23.3753 26.6371 24.2469 26.411 25.0925C26.0035 26.6175 24.616 27.4175 23.2885 27.4938L23.0785 27.5H10.796C10.1419 27.5 9.49923 27.3289 8.93174 27.0037C8.36425 26.6785 7.89169 26.2105 7.56095 25.6462L7.4422 25.4275L4.6622 19.8675C4.2122 18.9675 4.54595 17.7638 5.59595 17.3325C6.8997 16.7987 8.13845 16.7 9.4147 17.3475C9.6922 17.4888 9.9647 17.6625 10.2322 17.865L10.501 18.0775V10.625C10.501 9.7962 10.8302 9.00134 11.4162 8.41529C12.0023 7.82924 12.7972 7.5 13.626 7.5ZM13.626 2.5C14.8822 2.49977 16.1213 2.79083 17.2461 3.35031C18.3708 3.9098 19.3505 4.72246 20.1082 5.72447C20.8659 6.72647 21.3809 7.89051 21.6128 9.12514C21.8447 10.3598 21.7872 11.6314 21.4447 12.84C21.3484 13.1518 21.134 13.4136 20.8473 13.5695C20.5606 13.7253 20.2243 13.7629 19.9102 13.6741C19.5962 13.5853 19.3294 13.3772 19.1667 13.0943C19.004 12.8114 18.9584 12.4761 19.0397 12.16C19.289 11.2788 19.3194 10.35 19.1282 9.45429C18.937 8.55863 18.53 7.7232 17.9426 7.02059C17.3551 6.31797 16.605 5.76942 15.7574 5.42259C14.9097 5.07576 13.9902 4.94114 13.0788 5.03043C12.1673 5.11972 11.2914 5.43022 10.5272 5.93495C9.76297 6.43968 9.13356 7.12337 8.69363 7.92663C8.2537 8.72989 8.01656 9.62842 8.0028 10.5442C7.98905 11.4599 8.1991 12.3651 8.6147 13.1812C8.76555 13.4766 8.79287 13.8198 8.69066 14.1354C8.58845 14.4509 8.36509 14.7129 8.0697 14.8637C7.77432 15.0146 7.43111 15.0419 7.11558 14.9397C6.80005 14.8375 6.53805 14.6141 6.3872 14.3188C5.75491 13.08 5.4512 11.6996 5.50516 10.3098C5.55911 8.92003 5.96892 7.56736 6.69535 6.38131C7.42178 5.19527 8.44051 4.21555 9.654 3.53597C10.8675 2.85638 12.2351 2.49967 13.626 2.5Z" fill="#BA5E62"/>
</svg>
